<?xml version="1.0" encoding="UTF-8"?>
<svg version="1.1" viewBox="0 0 600 702" xmlns="http://www.w3.org/2000/svg">
 <path d="m81.334 343.45 0.43922-53.475c100.48-9.599 201.81-9.4495 303.94 0v53.475z" fill="#333"/>
 <path d="m383.96 344.43-0.43922 15.624-5.2707 2.6353-0.43922 12.298s-10.102 16.714-10.102 18.471h-268.37l-10.1-15.84-0.439-14.49-4.392-2.64-1.318-16.06z" fill="#1a1a1a" stroke="#000" stroke-width="1.0296px"/>
 <path d="m367.71 394.56v31.105l-4.8315 3.953-256.51 0.87845-6.1491-3.5138-0.87845-32.423z" fill="#1a1a1a" stroke="#000" stroke-width="1.0296px"/>
 <path d="m596.54 631.93c2.3235-41.068 3.8416-82.596 0.43923-126.94-8.3934-43.701-11.932-76.896-29.55-98.192-27.21-32.889-71.655-33.435-99.549-15.499-6.6045 4.2468-13.167 10.844-18.041 23.211l-8.3452 50.511c-1.137 5.7161-2.6054 11.018-8.3452 10.981l-38.076 1.7569c-4.6969-0.77695-7.1493-4.9178-9.5332-14.2-3.4821-13.559-7.964-29.487-19.835-33.756-23.678 1.9721-41.554-5.2707-55.283-19.101-11.399-6.0097-129.09-6.8213-153.58 0.46587l-29.505 17.237c-11.013 0.30758-22.833-3.6872-31.524 9.0067l-20.498 0.93174c-4.5991-0.0821-4.8918 3.5272-3.7269 8.3856l-6.2116 0.62116-2.4846 41.928c-30.568 5.9958-65.852 5.1456-61.5 61.831l2.3347 89.11 4.814 0.46587c0.39132 4.6293-2.054 10.11 6.0563 12.423 0.94146 10.017 1.0781 20.363 19.722 23.138l104.35 1.2423v-13.044h190.59v11.647l12.091-0.24201 11.42-11.42 49.893 0.63631 6.2116-14.287 63.358-0.62116 17.11 16.307c21.911 0.18858 69.439 2.4607 92.872-5.233 10.418-4.0666 11.575-14.972 14.324-29.305z" fill="#333" stroke="#575757" stroke-width="2.0592"/>
 <path d="m472.24 425.5c-15.399-7.9901-11.331-18.697-1.7569-29.428 13.736-15.943 56.895-19.809 84.77 4.3922 12.139 12.978 19.386 23.077 23.279 43.483 3.8992 20.358-10.279 14.076-22.4 11.859-23.767-14.116-50.627-25.274-83.892-30.306z" fill="#4d4d4d" stroke="#000" stroke-width="1.0296px"/>
 <rect x="356" y="540.12" width="193.06" height="79.968" ry="7.748" fill="#b3b3b3" stroke="#000" stroke-linejoin="round" stroke-width="9.1099"/>
 <rect x="397.39" y="572.21" width="37.89" height="21.495" ry="2.6716" fill="#b3b3b3" stroke="#5d5d5d" stroke-width=".5148"/>
 <rect x="441.18" y="575.31" width="18.235" height="16.035" ry="0" fill="#b3b3b3" stroke="#5d5d5d" stroke-width=".30846"/>
 <rect x="361.98" y="545.26" width="30.958" height="50.611" ry="3.4953" fill="#b3b3b3" stroke="#5d5d5d" stroke-width=".71404"/>
 <path d="m367.93 602.72h19.655v8.1256h-19.655v-2.1239h-2.0592v-3.5693h2.0592z" fill="#b3b3b3" stroke="#5d5d5d" stroke-width=".5148"/>
 <rect x="500.34" y="570.81" width="44.288" height="44.691" ry="1.2066" fill="#b3b3b3" stroke="#5d5d5d" stroke-width=".80252"/>
 <g transform="matrix(1.0296 0 0 1.0296 -16.612 -14.606)" fill="none" stroke="#686868" stroke-linecap="round" stroke-linejoin="round" stroke-width="2">
  <path d="m427.15 555.85 0.85319-6.2923h-8.3186l-0.85319 6.0527"/>
  <path d="m418.48 559.06-0.85319 6.2923h8.3186l0.85319-6.0527"/>
 </g>
 <g transform="matrix(1.0296 0 0 1.0296 -2.198 -14.606)" fill="none" stroke="#686868" stroke-linecap="round" stroke-linejoin="round" stroke-width="2">
  <path d="m427.15 555.85 0.85319-6.2923h-8.3186l-0.85319 6.0527"/>
  <path d="m418.48 559.06-0.85319 6.2923h8.3186l0.85319-6.0527"/>
 </g>
 <g transform="matrix(1.0296 0 0 1.0296 10.157 -14.606)" fill="none" stroke="#686868" stroke-linecap="round" stroke-linejoin="round" stroke-width="2">
  <path d="m427.15 555.85 0.85319-6.2923h-8.3186l-0.85319 6.0527"/>
  <path d="m418.48 559.06-0.85319 6.2923h8.3186l0.85319-6.0527"/>
 </g>
 <g transform="matrix(1.0296 0 0 1.0296 -31.027 -14.606)" fill="none" stroke="#686868" stroke-linecap="round" stroke-linejoin="round" stroke-width="2">
  <path d="m427.15 555.85 0.85319-6.2923h-8.3186l-0.85319 6.0527"/>
  <path d="m418.48 559.06-0.85319 6.2923h8.3186l0.85319-6.0527"/>
 </g>
 <path d="m477.6 551.22h-8.5648l-0.87845 6.2319" fill="none" stroke="#686868" stroke-linecap="round" stroke-linejoin="round" stroke-width="2.0592"/>
 <path d="m466.92 567.48h8.5648l0.87845-6.2319" fill="none" stroke="#686868" stroke-linecap="round" stroke-linejoin="round" stroke-width="2.0592"/>
 <path d="m494.07 551.22h-8.5648" fill="none" stroke="#686868" stroke-linecap="round" stroke-linejoin="round" stroke-width="2.0592"/>
 <path d="m484.27 561.01-0.87845 6.4786h8.5649l0.87844-6.2319" fill="none" stroke="#686868" stroke-linecap="round" stroke-linejoin="round" stroke-width="2.0592"/>
 <path d="m493.25 558.84h-8.5648" fill="none" stroke="#686868" stroke-linecap="round" stroke-linejoin="round" stroke-width="2.0592"/>
 <path d="m485.51 551.22-0.87845 6.2319" fill="none" stroke="#686868" stroke-linecap="round" stroke-linejoin="round" stroke-width="2.0592"/>
 <path d="m476.77 558.84h-8.5648" fill="none" stroke="#686868" stroke-linecap="round" stroke-linejoin="round" stroke-width="2.0592"/>
 <path d="m406.68 558.86h-4.7998" fill="none" stroke="#686868" stroke-linecap="round" stroke-linejoin="round" stroke-width="1.7846"/>
 <path transform="matrix(1.1397 0 0 1.1397 -66.278 -72.494)" d="m450.16 512.39a8.4786 8.4786 0 1 1 -16.957 0 8.4786 8.4786 0 1 1 16.957 0z"/>
 <path transform="matrix(1.1397 0 0 1.1397 -115.7 -72.494)" d="m450.16 512.39a8.4786 8.4786 0 1 1 -16.957 0 8.4786 8.4786 0 1 1 16.957 0z"/>
 <path transform="matrix(1.1397 0 0 1.1397 -16.857 -72.494)" d="m450.16 512.39a8.4786 8.4786 0 1 1 -16.957 0 8.4786 8.4786 0 1 1 16.957 0z"/>
 <path transform="matrix(1.0102 0 0 1.0102 81.743 -2.4009)" d="m450.16 512.39a8.4786 8.4786 0 1 1 -16.957 0 8.4786 8.4786 0 1 1 16.957 0z"/>
 <rect x="482.49" y="464.13" width="61.184" height="13.665" ry="3.4953" fill="#1a1a1a"/>
 <path d="m523.83 413.8c3.8514 10.575-6.6952 16.958-18.67 14.166-7.1972-1.6781-15.993-6.9624-18.67-14.166-3.517-9.4658 7.5397-15.258 18.67-14.166 10.262 1.0068 15.992 6.8149 18.67 14.166z"/>
 <path d="m137.78 664.56v31.679c2.0921 5.2965 7.8721 6.2849 16.226 4.2664 48.103-7.2378 98.367-13.446 158.11-1.0981 8.2216 0.56659 15.327 2.3752 18.898-4.1889v-31.59z" fill="#333" stroke="#828282" stroke-width="1.0394px"/>
 <path d="m145.02 465.47c12.611 39.275 17.927 86.999 8.3452 151.97-11.338 16.574-24.773 19.867-37.773 25.914h-73.79c-13.079 1.1406-24.25-2.2292-24.597-31.185l-2.1961-56.221c11.032-52.957 51.261-39.811 82.135-45.679 11.021-4.5182 17.514-11.301 21.522-19.326 9.657-16 19.532-33.876 26.353-25.475z" fill="#808080" opacity=".62646" stroke="#8e8e8e" stroke-width="1.0296px"/>
 <path d="m346.63 672.26h166.9v-4.8314h-25.255l-16.91-15.812-60.393-0.21962-6.1491 13.616h-50.73z" fill="#4d4d4d" stroke="#000" stroke-width="1.0296px"/>
 <rect x="450.06" y="647.96" width="21.083" height="10.761" ry="2.8364"/>
 <rect x="495.3" y="657.63" width="23.938" height="8.1256" ry="2.1418"/>
 <rect x="541.2" y="658.06" width="23.938" height="8.1256" ry="2.1418"/>
 <path d="m334.34 461.33c6.6855 11.881 9.8223 22.036 26.308 35.55l14.89 1.7192c5.7407-12.372 22.146-12.209 29.205 0l19.043-0.62116c5.6004-9.4721 18.932-12.051 27.331 0l21.74 0.62116c9.1772-14.353 24.202-8.788 29.194-0.62116l15.529 3.1058c36.008-5.7799 47.382 11.706 63.358 24.846l1.2423 1.2423" fill="none" stroke="#000" stroke-width="1.0296px"/>
 <path d="m159.52 411.21c20.357 8.1786 17.603 25.504 18.008 43.71l-3.5138 148.46-36.895 44.801c15.399-11.071 31.864-14.164 46.118-14.934l18.887 18.008h61.93l20.204-19.326 45.679 6.5884c-13.177-10.264-26.353-19.121-39.53-45.24l-3.0746-138.36c0.50022-16.046-0.43866-36.25 19.326-44.431-47.947-4.8246-96.852-4.9817-147.14 0.72072z" fill="#4d4d4d" stroke="#979797" stroke-width="1.0296px"/>
 <path d="m183.4 545.81c1.9792-4.9092 3.4359-5.9902 8.2247-6.6992 26.379-3.9054 55.683-2.9341 79.539-1.024 6.5117 0.52139 9.8862 1.7858 13.485 8.655l-0.93173 79.818c-7.912 10.412-11.862 11.742-20.188 20.809h-59.01l-20.498-19.566z" fill="none" stroke="#1a1a1a" stroke-width="1.0296px"/>
 <path d="m197.07 625.01 21.119 0.62115 0.62115-29.505c-5.2605-16.578 2.3069-20.895 9.3173-25.002l0.31057-10.715c5.2324-6.3536 7.545-2.3256 10.249 0.31058l0.62116 10.404c3.8428 1.7715 14.942 8.7805 8.3856 25.002l-0.31058 29.505h23.604s4.6587-1.2423 4.6587-3.1058-0.62116-67.861-0.62116-67.861c-27.79-2.8992-55.407-3.8093-82.614 0v65.377c0.45445 4.5856 2.475 4.9949 4.6587 4.9692z" fill="#999"/>
 <path d="m392.74 56.178s1.7569 33.312 1.098 34.191c-0.65883 0.87845-5.2707 10.541-5.2707 10.541-73.479-15.022-211.92-13.901-312.01 0l-6.211-9.478 3.106-35.254c-8.1791-19.779 328.04-21.983 319.29 0zm-320.53-15.68-0.311-6.212 4.381-2.993 0.879-15.373c-6e-3 -18.067 309.88-18.318 309.43 0l1.7569 13.396 5.2707 2.855v7.2472c-3.0635-0.31882-3.0483 2.0118-6.1038 1.7207-1.915-0.1824-3.419 5.1454-5.3041 4.7718-59.744-11.842-221.4-12.286-300.49 0-2.456 0.38152-1.0123-3.2278-3.4958-3.0987-2.0056 0.1043-4.0115-2.4242-6.0179-2.3147z" fill="#333" stroke="#777" stroke-width="1.0296px"/>
 <path d="m73.428 167.67 3.7639-0.23295c43.369-10.101 280.73-12.021 311.89 0.15527l2.5216 0.38821-0.62116-59.606c-2.3013-0.37586-1.1093-7.7189-3.456-8.1307-103.43-12.669-211.97-12.105-311.24 1.2793-1.7339 0.23339-1.6522 3.1157-2.4232 4.751z" fill="#333" stroke="#a2a2a2" stroke-width="1.0296px"/>
 <path d="m75.94 170.32 3.7269 10.56-0.31058 23.755 2.174 3.2657-13.976 8.075 1.5529 61.52 13.524 1.5274c0.09455 3.1897 0.12648 5.8959 0 9.6855 110.42-7.1588 212.93-7.7442 300.16 0 1.0247-25.923-0.24092-52.805 0-78.944 1.2798-1.1029 3.6239-2.4966 3.7087-5.1292 0.34473-10.707 0.0868-10.92 0-22.823 0.0715-5.1945 3.1486-7.7092 2.8135-11.491-30.556-15.189-310.28-10.671-313.37 0z" fill="#1a1a1a" stroke="#a2a2a2" stroke-width="1.0296px"/>
 <path d="m164.02 211.63c47.82-1.4256 92.942-1.5021 134.91 0 1.2057 0.0431 2.1778 0.95525 2.1778 2.1418v48.515c0 1.1866-0.97198 2.1832-2.1778 2.1418-39.074-1.3398-82.968-1.584-134.91 0-1.2059 0.0368-2.1777-0.95525-2.1777-2.1418v-48.515c0-1.1866 0.97181-2.1059 2.1777-2.1418z" fill="#b3b3b3" stroke="#000" stroke-linecap="round" stroke-linejoin="round" stroke-width="3.0888"/>
 <path d="m120.43 578.35c-0.39608 23.594-8.8766 39.452-30.746 47.217-39.647 14.077-67.797-21.983-64.127-50.291 3.0496-23.519 23.507-45.474 50.73-44.142 23.865 1.1674 44.525 24.418 44.142 47.216z" fill="#333"/>
 <path transform="matrix(1.0296 0 0 1.0296 -20.029 -16.469)" d="m102.86 580.2a16.741 17.496 0 1 1 -33.483 0 16.741 17.496 0 1 1 33.483 0z"/>
 <path transform="matrix(1.2118 0 0 1.2118 -37.012 -125.07)" d="m122.17 582.31a34.086 34.086 0 1 1 -68.172 0 34.086 34.086 0 1 1 68.172 0z" fill="none" stroke="#d0d0d0"/>
 <path d="m72.017 79.32c0.97597-20.555 320.78-21.096 320.71 0" fill="none" stroke="#de3838" stroke-linejoin="round" stroke-width="4.1184"/>
</svg>
